<svg viewBox="0 0 7560 7560" xmlns="http://www.w3.org/2000/svg" fill-rule="evenodd" clip-rule="evenodd" stroke-linejoin="round" stroke-miterlimit="2"><path d="M3783.03 7015.284c14.043-7.951 30.194-16.795 46.05-26.121 431.848-253.97 828.338-554.803 1192.06-899.133 23.2-21.957 41.156-47.372 55.493-75.565 23.316-45.845 47.051-91.512 69.349-137.857 172.088-357.729 208.982-728.366 94.816-1109.348-221.962-740.702-936.124-1165.752-1651.225-1076.384-204.328 25.53-395.534 90.591-573.822 190.74-340.782 191.439-704.202 270.319-1093.045 233.157-190.794-18.233-373.612-66.99-549.006-143.967-138.106-60.63-266.36-137.759-385.412-230.315-8.281-6.432-17.599-11.533-33.053-21.53 5.1 17 7.21 26.398 10.684 35.269 152.74 389.7 341.953 760.865 566.854 1113.832 242.777 381.036 522.242 733.002 838.021 1056.106 315.779 323.113 661.376 610.422 1036.516 862.176 165.04 110.754 324.944 208.402 375.72 228.94m1791.922-1532.602c18.823-8.853 26.175-23.324 35.626-35.063 138.134-171.552 267.209-349.689 386.85-534.605 429.874-664.423 729.805-1382.926 896.972-2156.646 56.788-262.876 96.817-528.254 120.338-796.187 16.008-182.335 24.968-364.938 25.058-547.97.009-12.622-1.278-25.244-1.966-37.769-17.777-10.47-33.58-20.108-49.686-29.202-140.661-79.363-283.824-153.946-430.186-222.23-211.064-98.471-425.147-189.625-647.717-259.402-270.89-84.928-544.557-94.361-820.61-27.8-785.78 189.463-1287.957 958.6-1139.184 1752.768 82.497 440.379 318.717 780.062 697.59 1019.918 25.353 16.044 51.268 31.186 76.862 46.846 276.785 169.4 493.682 396.23 648.655 681.216 162.959 299.69 236.238 620.373 217.38 961.38-3.305 59.762-10.229 119.337-15.982 184.746M519.216 1375.032c0 16.857-.009 29.65 0 42.441.196 251.782 16.642 502.598 46.72 752.477 27.166 225.66 66.365 449.303 117.186 670.89 8.969 39.083 21.073 76.432 38.26 112.996 307.632 654.72 1020.41 1002.882 1727.22 842.88 538.956-122.01 975.565-537.357 1125.517-1069.006 41.459-147.013 55.6-297.269 60.254-448.936 3.073-100.159 12.48-199.54 31.284-298.02C3780.627 1378.48 4183.46 880.867 4747.571 644.79c31.606-13.23 63.854-24.897 95.692-37.59 4.503-1.805 11.73-2.36 9.603-10.622-88.599-31.615-621.007-84.705-940.305-91.003-685.094-13.498-1356.457 76.522-2013.027 273.329-482.168 144.538-941.306 342.694-1380.318 596.128m3261.348 5990.155c-14.838-8.085-27.451-14.534-39.663-21.69-1604.46-939.564-2817.584-2486.164-3311.33-4338.403-78.102-293.026-136.722-589.946-176.948-890.583-40.61-303.576-60.656-608.474-63.291-914.614-.456-52.643-5.19-44.085 39.86-69.66 602.89-342.24 1241.683-592.6 1917.076-749.547 249.342-57.94 500.999-102.562 755.031-133.462 349.528-42.513 700.432-59.96 1052.444-51.133 197.182 4.949 393.917 17.652 590.16 38.573 983.722 104.884 1906.286 400.581 2768.381 885.518 12.453 7.004 24.513 14.794 37.323 21.047 14.597 7.138 21.163 17.786 20.412 34.08-.786 17.125-.107 34.294-.357 51.446-2.582 177.234-9.55 354.29-24.352 530.952-21.243 253.657-55.243 505.617-103.285 755.603-103.17 536.821-265.208 1055.294-488.207 1554.434-354.066 792.498-836.278 1497.709-1445.378 2116.045-439.681 446.355-929.54 828.605-1469.06 1147.189-18.429 10.871-36.992 21.52-58.816 34.205" fill="#f0f0f0" fill-rule="nonzero"/></svg>